<svg xmlns="http://www.w3.org/2000/svg" width="505.4255" height="835.70229" viewBox="0 0 505.4255 835.70229"><defs><style>.cls-1{fill:#fff;}</style></defs><g id="Layer_2" data-name="Layer 2"><g id="Layer_1-2" data-name="Layer 1"><path class="cls-1" d="M0,832.00511c.86989,1.24451,1.75187,2.47693,2.63393,3.69718A7.51476,7.51476,0,0,1,0,832.00511Z"/><path class="cls-1" d="M505.4255,832.00511a7.51461,7.51461,0,0,1-2.63385,3.69718C503.67363,834.482,504.55561,833.24962,505.4255,832.00511Z"/><path class="cls-1" d="M28.28453,459.5855c2.73061-18.81211,5.96865-36.89931,9.49665-54.17694.87-4.31338,1.77613-8.56629,2.6823-12.78307q2.02982-9.36977,4.14421-18.38918c13.61675-58.42986,29.14244-105.71989,36.16224-137.75a173.04172,173.04172,0,0,0,4.2046-38.32493c-.0362-8.49387-.76118-14.6075-.76118-15.59826C84.21335,81.73653,159.643,0,252.71275,0S421.21208,81.73653,421.21208,182.56311c0,.99076-.72491,7.10439-.761,15.59826a173.03677,173.03677,0,0,0,4.2046,38.32493c7.01973,32.03012,22.54542,79.32015,36.16216,137.75q2.12031,9.00727,4.14414,18.38918c.90617,4.21678,1.81234,8.46969,2.68238,12.78307,3.52807,17.27763,6.766,35.36483,9.49665,54.17694H429.79061c-.15722.0604-.30206.12079-.45928.1691a23.26059,23.26059,0,0,1-7.76882,1.32909q-.59821,0-1.19613-.03628a23.15417,23.15417,0,0,1-7.04406-1.46191H91.86145a23.07368,23.07368,0,0,1-8.14345,1.474h-.02418a23.39932,23.39932,0,0,1-7.04392-1.07534q-.56193-.18119-1.12371-.39866Z"/><path class="cls-1" d="M485.526,575.50283c-.94245,38.86865-9.00123,132.49417-64.38633,215.40272-.58007.87-1.17209,1.75194-1.752,2.62183C407.28118,804.474,337.27656,812.859,252.71275,812.859s-154.56851-8.385-166.675-19.33164c-.57992-.86989-1.17194-1.75187-1.75194-2.62183-55.3851-82.90855-63.444-176.53407-64.38641-215.40272H76.32366c.19328-.33834.38664-.67661.60411-1.00285a22.93927,22.93927,0,0,0,6.21031.99075c.18119.0121.37455.0121.55574.0121a23.24285,23.24285,0,0,0,7.86557-1.3653c.12079.45913.25375.90617.38664,1.3653H414.48232c.0966-.32625.19336-.65249.27787-.97866a22.86191,22.86191,0,0,0,5.9929.97866h1.61884a22.591,22.591,0,0,0,5.95662-.97866c.20546.31407.41076.64032.59217.97866Z"/><circle cx="252.71279" cy="162.75597" r="126.27924"/><circle class="cls-1" cx="252.71279" cy="162.75597" r="117.276"/><path d="M361.161,162.756c-10.62907-22.69659-23.64849-33.56223-33.469-39.28685-15.52731-9.05116-27.61165-7.90488-40.2223-19.64343-10.73334-9.9911-14.94533-22.891-16.83724-31.80372A98.08174,98.08174,0,0,1,241.635,100.08405c-18.87479,11.69253-32.22739,10.36845-49.57633,17.77261-13.358,5.70095-31.24769,17.49923-47.794,44.89931,0-59.49288,48.95525-108.44813,108.44813-108.44813S361.161,103.26309,361.161,162.756Z"/><path d="M223.23149,174.756c-.75534.22942-2.06322-7.8475-9.93377-14.031a27.88067,27.88067,0,0,0-17.02925-6.236,27.4178,27.4178,0,0,0-14.90057,4.36522c-9.41513,6.03708-11.7232,16.25812-12.772,15.90186-.68259-.23185.56429-4.47045.92392-5.6028a22.9488,22.9488,0,0,1,2.51449-5.36659,26.72326,26.72326,0,0,1,4.95581-5.66467,28.1983,28.1983,0,0,1,9.29422-5.60229,29.5236,29.5236,0,0,1,9.62935-1.7723,28.35722,28.35722,0,0,1,13.18288,3.23207,27.78441,27.78441,0,0,1,9.012,7.259C223.10966,167.47,223.93364,174.54269,223.23149,174.756Z"/><circle cx="195.92179" cy="165.65483" r="14.90791"/><path d="M336.81349,174.756c-.75535.22942-2.06323-7.8475-9.93377-14.031a27.88073,27.88073,0,0,0-17.02925-6.236,27.41781,27.41781,0,0,0-14.90058,4.36522c-9.41513,6.03708-11.7232,16.25812-12.772,15.90186-.6826-.23185.56428-4.47045.92391-5.6028a22.9488,22.9488,0,0,1,2.51449-5.36659,26.72326,26.72326,0,0,1,4.95581-5.66467,28.1983,28.1983,0,0,1,9.29422-5.60229,29.5236,29.5236,0,0,1,9.62935-1.7723,28.35722,28.35722,0,0,1,13.18288,3.23207,27.78431,27.78431,0,0,1,9.012,7.259C336.69165,167.47,337.51563,174.54269,336.81349,174.756Z"/><circle cx="309.50378" cy="165.65483" r="14.90791"/><path d="M444.94168,437.69243a23.41458,23.41458,0,0,1-15.15107,21.89307c-.15722.0604-.30206.12079-.45928.1691a23.26059,23.26059,0,0,1-7.76882,1.32909q-.59821,0-1.19613-.03628a23.15417,23.15417,0,0,1-7.04406-1.46191c-.4348-.15708-.8578-.33834-1.28065-.53162a23.36741,23.36741,0,0,1-4.34958-40.17356,23.0118,23.0118,0,0,1,9.48455-4.15631,23.77977,23.77977,0,0,1,4.38587-.41083A23.37417,23.37417,0,0,1,444.94168,437.69243Z"/><path d="M444.99006,459.5855H429.79061c-.15722.0604-.30206.12079-.45928.1691a23.26059,23.26059,0,0,1-7.76882,1.32909q-.59821,0-1.19613-.03628a23.15417,23.15417,0,0,1-7.04406-1.46191H411.51a5.533,5.533,0,0,1,.53169-.53162,23.21214,23.21214,0,0,1,15.92451-6.52446,2.13581,2.13581,0,0,1,.27786-.01209,23.40071,23.40071,0,0,1,16.746,7.06817Z"/><path d="M422.37193,575.50283a3.39833,3.39833,0,0,1-.49527.01209,2.745,2.745,0,0,1-.31415.012c-.26577,0-.54364,0-.80942-.02411Z"/><path d="M431.98952,587.07759A23.36535,23.36535,0,0,1,409.577,610.43265c-.32624.01209-.65249.02418-.97873.02418a22.85415,22.85415,0,0,1-6.1258-.82158,23.37014,23.37014,0,0,1-14.18457-34.13242h26.19443c.0966-.32625.19336-.65249.27787-.97866a22.86191,22.86191,0,0,0,5.9929.97866h1.61884a22.591,22.591,0,0,0,5.95662-.97866c.20546.31407.41076.64032.59217.97866A23.18907,23.18907,0,0,1,431.98952,587.07759Z"/><circle cx="393.20625" cy="620.88893" r="23.38504"/><circle cx="378.82445" cy="655.59753" r="23.38504"/><circle cx="355.4394" cy="683.56085" r="23.38504"/><circle cx="329.85653" cy="704.37354" r="23.38504"/><circle cx="306.47149" cy="720.97692" r="23.38504"/><circle cx="252.629" cy="736.41105" r="23.38504"/><circle cx="276.01404" cy="732.90329" r="23.38504"/><path d="M107.08508,437.66824a23.37663,23.37663,0,0,1-13.85833,21.36145c-.447.20538-.90617.38664-1.3653.55581a23.07368,23.07368,0,0,1-8.14345,1.474h-.02418a23.39932,23.39932,0,0,1-7.04392-1.07534q-.56193-.18119-1.12371-.39866a23.38572,23.38572,0,1,1,31.55889-21.91726Z"/><path d="M93.78256,459.5855H91.86145a23.07368,23.07368,0,0,1-8.14345,1.474h-.02418a23.39932,23.39932,0,0,1-7.04392-1.07534q-.56193-.18119-1.12371-.39866H60.25425a22.9389,22.9389,0,0,1,7.23727-5.06248,23.19323,23.19323,0,0,1,9.52084-2.02981c.37455,0,.737.012,1.11155.03621a23.31307,23.31307,0,0,1,15.10284,6.50027C93.42,459.211,93.6013,459.39214,93.78256,459.5855Z"/><path d="M120.03731,587.05348a23.39071,23.39071,0,0,1-16.0211,22.183,22.79874,22.79874,0,0,1-7.35806,1.19614c-.5921,0-1.172-.02419-1.752-.07249a21.81643,21.81643,0,0,1-3.46761-.51953,23.36775,23.36775,0,0,1-15.11493-34.3378c.19328-.33834.38664-.67661.60411-1.00285a22.93927,22.93927,0,0,0,6.21031.99075c.18119.0121.37455.0121.55574.0121a23.24285,23.24285,0,0,0,7.86557-1.3653c.12079.45913.25375.90617.38664,1.3653h25.03443A23.21246,23.21246,0,0,1,120.03731,587.05348Z"/><circle cx="112.05175" cy="620.86899" r="23.38504"/><circle cx="126.43355" cy="655.57759" r="23.38504"/><circle cx="149.81859" cy="683.54091" r="23.38504"/><circle cx="175.40147" cy="704.3536" r="23.38504"/><circle cx="198.78651" cy="720.95698" r="23.38504"/><circle cx="252.629" cy="736.39111" r="23.38504"/><circle cx="229.24395" cy="732.88335" r="23.38504"/><path class="cls-1" d="M83.69382,461.0595a23.39932,23.39932,0,0,1-7.04392-1.07534l.0725-.39866q.65241-3.58851,1.40151-7.05608a259.93006,259.93006,0,0,1,11.1157-37.57584c.45913-1.18411.90617-2.344,1.35321-3.4797.33827-.85787.66451-1.69155,1.00285-2.51313,2.00563-.09668,4.37378-.24166,7.0681-.45914,23.56043-1.93313,71.43039-9.96787,113.04174-46.97588a184.60127,184.60127,0,0,0,41.00724-52.84785,197.74872,197.74872,0,0,0,42.7108,51.91757c38.9171,33.43163,82.03867,43.58069,107.38725,46.89129,4.68793.61614,8.75965.99076,12.09437,1.24444.35043.89408.70086,1.81234,1.06324,2.7427.39867,1.06325.80957,2.13859,1.20823,3.25013a262.93817,262.93817,0,0,1,10.78954,37.80541q.72475,3.46164,1.341,7.05608a.71155.71155,0,0,1,.02419.1691,23.26059,23.26059,0,0,1-7.76882,1.32909q-.59821,0-1.19613-.03628a23.15417,23.15417,0,0,1-7.04406-1.46191H91.86145a23.07368,23.07368,0,0,1-8.14345,1.474Z"/><path class="cls-1" d="M420.75309,575.50283h1.12357v.01209a322.45876,322.45876,0,0,1-10.5357,30.60435c-.56784,1.43779-1.15985,2.88768-1.764,4.31338a316.05582,316.05582,0,0,1-13.85848,29.00954c-.86989,1.61906-1.764,3.23805-2.65819,4.83291a293.46876,293.46876,0,0,1-17.5072,27.35429c-1.474,2.02981-2.97219,4.04753-4.50666,6.017a239.34465,239.34465,0,0,1-18.43756,21.36145q-3.06276,3.1353-6.22225,6.12572a191.24978,191.24978,0,0,1-16.61313,14.0275q-4.6397,3.47978-9.42423,6.58485a147.48927,147.48927,0,0,1-21.36145,11.52646c-2.1023.91827-4.2167,1.764-6.34319,2.56151A121.97632,121.97632,0,0,1,274.328,745.15h-.01209a114.86427,114.86427,0,0,1-16.68562,2.199q-4.02345.23562-8.083.18126c-.6887-.01209-1.3653-.02418-2.04191-.04837a113.77448,113.77448,0,0,1-16.28688-1.69148h-.01209a120.18752,120.18752,0,0,1-19.64579-5.24373c-1.66736-.60412-3.33472-1.23242-4.99-1.909a141.41235,141.41235,0,0,1-23.36715-12.23935c-2.63393-1.69148-5.24367-3.47963-7.8051-5.36454a181.13269,181.13269,0,0,1-18.23219-15.29612q-2.48289-2.356-4.8933-4.82082a233.02611,233.02611,0,0,1-19.5733-22.81133c-1.26862-1.67946-2.52515-3.383-3.74547-5.11078a283.799,283.799,0,0,1-18.05092-28.78c-.72491-1.317-1.4257-2.63393-2.12649-3.963A319.55971,319.55971,0,0,1,94.9062,610.36016c-.48332-1.22033-.96657-2.44065-1.43779-3.673a322.55951,322.55951,0,0,1-10.33033-31.18434v-.0121c.18119.0121.37455.0121.55574.0121a23.24285,23.24285,0,0,0,7.86557-1.3653c.12079.45913.25375.90617.38664,1.3653H414.48232c.0966-.32625.19336-.65249.27787-.97866A22.86191,22.86191,0,0,0,420.75309,575.50283Z"/><path d="M252.71274,280.032c-11.5553,16.69446-42.23162,56.20115-98.07017,79.15835A222.51654,222.51654,0,0,1,44.60422,374.23579l-4.03367,17.908c15.29229,4.01044,79.80657,19.08334,144.00485-17.05161,37.41036-21.057,58.33081-50.28169,68.13741-66.41356Q252.71281,294.35533,252.71274,280.032Z"/><path d="M252.71274,280.032c11.55537,16.69446,42.23169,56.20115,98.07031,79.15835a222.51642,222.51642,0,0,0,110.03836,15.04547l4.03366,17.908c-15.29236,4.01044-79.80656,19.08334-144.00492-17.05161-37.41036-21.057-58.33089-50.28169-68.13741-66.41356Z"/><path d="M414.48232,575.50283c-2.46483,8.663-5.35251,17.26554-8.61467,25.73522q-1.63115,4.22278-3.39519,8.3972c-3.67306,8.72336-7.75672,17.27763-12.22711,25.554q-2.13866,3.98718-4.4102,7.88976a263.29739,263.29739,0,0,1-14.92143,22.95632q-3.02691,4.1865-6.22255,8.19174a220.431,220.431,0,0,1-15.25977,17.36222c-3.1536,3.23812-6.40366,6.3432-9.71419,9.27925q-5.9264,5.31015-12.16686,9.95578a156.05351,156.05351,0,0,1-14.63161,9.66582,133.57917,133.57917,0,0,1-14.11209,7.17687,123.331,123.331,0,0,1-12.72267,4.76042q-5.00208,1.55859-10.11286,2.646a108.56492,108.56492,0,0,1-22.88382,2.489H252.169a109.04117,109.04117,0,0,1-22.87173-2.58563c-3.383-.74909-6.72984-1.64317-10.04037-2.70641a120.64455,120.64455,0,0,1-12.74678-4.8571,133.41019,133.41019,0,0,1-13.9188-7.21308,150.89007,150.89007,0,0,1-14.64371-9.87127q-6.12573-4.63959-11.93729-9.93159c-3.32263-3.02057-6.58486-6.18612-9.73831-9.49665a220.5727,220.5727,0,0,1-14.94577-17.28981q-3.15345-4.04148-6.18611-8.26423-7.75688-10.85591-14.57122-22.70256c-1.52238-2.646-3.02057-5.34042-4.47046-8.04684-4.398-8.228-8.4334-16.7098-12.08227-25.36068q-1.84863-4.31337-3.528-8.68715c-3.21393-8.26431-6.06533-16.63732-8.54218-25.04653Z"/><path d="M91.86145,459.5855a23.07368,23.07368,0,0,1-8.14345,1.474c.08459-.49534.16917-.99075.25376-1.474.33826-1.92111.68862-3.806,1.07527-5.66659a250.93122,250.93122,0,0,1,10.23372-36.561q1.14178-3.15345,2.28357-6.08944c.36245-.94245.7249-1.86071,1.09945-2.76689q.50751-1.26866,1.01494-2.501,5.83569-3.87834,11.67145-7.7568c.26577-.18127.53162-.36246.79739-.53163q70.28264-46.74022,140.5652-93.45635c.29-.19335.56783-.37454.85787-.5679q68.61519,46.88524,137.25466,93.75848c.25368.18119.51946.35036.77314.51953q4.9658,3.4072,9.94368,6.80232c.423.882.83376,1.78816,1.2687,2.71851.53155,1.17195,1.06325,2.36808,1.607,3.5884,1.08728,2.47686,2.18681,5.08667,3.27425,7.80518a243.8824,243.8824,0,0,1,11.23657,35.57021c.38657,1.67938.77313,3.39512,1.12357,5.135.10884.48325.2053.96657.31415,1.46191a23.15417,23.15417,0,0,1-7.04406-1.46191Z"/><path class="cls-1" d="M252.71283,326.13951q0-8.73041-.00007-17.46089c-8.56467,14.12411-35.07074,53.68839-87.61558,75.88189C107.29792,408.97328,55.72961,396.428,40.57057,392.14379q-1.54132,6.5965-3.08259,13.193c17.53176,4.38174,72.561,15.74582,132.82706-11.22477A203.4523,203.4523,0,0,0,252.71283,326.13951Z"/><path class="cls-1" d="M252.71274,326.13951q0-8.73041.00007-17.46089c8.56467,14.12411,35.07074,53.68839,87.61558,75.88189C398.12765,408.97328,449.696,396.428,464.855,392.14379q1.54132,6.5965,3.08259,13.193c-17.53176,4.38174-72.561,15.74582-132.82706-11.22477A203.45238,203.45238,0,0,1,252.71274,326.13951Z"/><path class="cls-1" d="M27.75818,508.54521h22.4585q9.82544,0,14.27051,5.87256,4.44287,5.874,4.44482,18.85645v3.71q0,12.9829-4.44482,18.85742-4.4458,5.874-14.27051,5.873H10.91492V475.15849H62.84949V492.47H27.75818Zm24.33008,24.729q0-7.418-5.61475-7.41895H27.75818v18.54785H46.47351q5.61475,0,5.61475-7.41894Z"/><path class="cls-1" d="M90.828,561.71464H72.58094L97.3783,475.15849h18.71533l24.79785,86.55615H122.64392L118.433,546.25859H95.03894Zm8.42187-31.53125h14.97217l-7.48584-29.0581Z"/><path class="cls-1" d="M164.19031,508.54521h22.4585q9.82543,0,14.27051,5.87256,4.44286,5.874,4.44433,18.85645v3.71q0,12.9829-4.44433,18.85742-4.4458,5.874-14.27051,5.873H147.34705V475.15849h51.93457V492.47H164.19031Zm24.33008,24.729q0-7.418-5.61475-7.41895H164.19031v18.54785h18.71533q5.61476,0,5.61475-7.41894Z"/><path class="cls-1" d="M226.60584,562.951a39.83165,39.83165,0,0,1-9.63867-1.23633V545.02129H225.389a3.76947,3.76947,0,0,0,3.74317-2.84375,7.45171,7.45171,0,0,0,.46777-2.65821,6.5011,6.5011,0,0,0-.46777-2.53515l-25.7334-61.82569h18.71582l16.84375,43.896,14.03613-43.896h18.71582l-23.8623,68.0083q-3.27686,9.769-7.86036,14.59082Q234.934,562.95195,226.60584,562.951Z"/><path class="cls-1" d="M359.57752,561.71464H277.22986V475.15849h16.84375v69.24463h15.90821V475.15849h16.84375v69.24463h15.9082V475.15849h16.84375Z"/><path class="cls-1" d="M420.307,473.92216a50.75059,50.75059,0,0,1,8.42188,1.23633v16.69336H424.9867a3.423,3.423,0,0,0-2.52735,1.17481,8.21641,8.21641,0,0,0-1.68359,2.53418l-8.89062,22.25732,18.248,43.89648H412.35389L397.849,526.47343h-8.42187v35.24121H372.58338V475.15849h16.84375v34.00489H397.849l9.35742-23.49415a26.83129,26.83129,0,0,1,5.10059-8.4707A10.40567,10.40567,0,0,1,420.307,473.92216Z"/><path class="cls-1" d="M449.22107,561.71464H430.974l24.79785-86.55615H474.4867l24.79785,86.55615H481.0365l-4.21093-15.45605H453.432Zm8.42188-31.53125H472.6156l-7.48632-29.0581Z"/></g></g></svg>
