<svg id="Layer_1" data-name="Layer 1" xmlns="http://www.w3.org/2000/svg" width="252.55848" height="252.55848" viewBox="0 0 252.55848 252.55848"><defs><style>.cls-1{fill:#fff;}</style></defs><circle cx="126.27924" cy="126.27924" r="126.27924"/><circle class="cls-1" cx="126.27924" cy="126.27924" r="117.276"/><path d="M234.72741,126.27924c-10.62907-22.69659-23.64848-33.56223-33.469-39.28686-15.52731-9.05116-27.61165-7.90487-40.2223-19.64342-10.73334-9.99111-14.94532-22.89106-16.83723-31.80373A98.08206,98.08206,0,0,1,115.2014,63.60732C96.32661,75.29985,82.974,73.97577,65.62507,81.37992c-13.358,5.701-31.24769,17.49924-47.794,44.89932,0-59.49288,48.95525-108.44813,108.44813-108.44813S234.72741,66.78636,234.72741,126.27924Z"/><path d="M96.798,138.27922c-.75535.22942-2.06323-7.8475-9.93377-14.031a27.88067,27.88067,0,0,0-17.02925-6.236,27.41777,27.41777,0,0,0-14.90057,4.36522c-9.41514,6.03708-11.72321,16.25812-12.772,15.90186-.6826-.23185.56428-4.47046.92391-5.6028a22.9489,22.9489,0,0,1,2.51449-5.3666,26.72378,26.72378,0,0,1,4.95581-5.66467,28.19815,28.19815,0,0,1,9.29422-5.60228,29.52331,29.52331,0,0,1,9.62935-1.7723A28.35705,28.35705,0,0,1,82.663,117.50264a27.78416,27.78416,0,0,1,9.01195,7.259C96.67611,130.99328,97.50009,138.06595,96.798,138.27922Z"/><circle cx="69.48824" cy="129.1781" r="14.90791"/><path d="M210.37994,138.27922c-.75535.22942-2.06323-7.8475-9.93377-14.031a27.88064,27.88064,0,0,0-17.02925-6.236,27.4178,27.4178,0,0,0-14.90057,4.36522c-9.41513,6.03708-11.72321,16.25812-12.772,15.90186-.6826-.23185.56428-4.47046.92392-5.6028a22.94809,22.94809,0,0,1,2.51449-5.3666,26.7236,26.7236,0,0,1,4.9558-5.66467,28.19815,28.19815,0,0,1,9.29422-5.60228,29.52331,29.52331,0,0,1,9.62935-1.7723,28.35705,28.35705,0,0,1,13.18288,3.23207,27.78416,27.78416,0,0,1,9.01195,7.259C210.2581,130.99328,211.08209,138.06595,210.37994,138.27922Z"/><circle cx="183.07023" cy="129.1781" r="14.90791"/></svg>
